<svg width="150" height="60" viewBox="0 0 150 60" fill="none" xmlns="http://www.w3.org/2000/svg">
<path d="M45.1801 27.6725C45.1801 26.2288 45.4983 24.9392 46.1348 23.8039C46.7852 22.6545 47.6639 21.7645 48.7708 21.1338C49.8917 20.489 51.1439 20.1666 52.5277 20.1666C54.1467 20.1666 55.565 20.5871 56.7827 21.4281C58.0004 22.2691 58.8513 23.4325 59.3357 24.9182H55.9939C55.6618 24.2174 55.1914 23.6918 54.5825 23.3414C53.9875 22.9909 53.2957 22.8157 52.5069 22.8157C51.6628 22.8157 50.9087 23.019 50.2445 23.4255C49.5942 23.8179 49.0822 24.3786 48.7086 25.1074C48.3488 25.8363 48.1689 26.6913 48.1689 27.6725C48.1689 28.6396 48.3488 29.4946 48.7086 30.2375C49.0822 30.9664 49.5942 31.534 50.2445 31.9405C50.9087 32.333 51.6628 32.5292 52.5069 32.5292C53.2957 32.5292 53.9875 32.354 54.5825 32.0036C55.1914 31.6392 55.6618 31.1065 55.9939 30.4057H59.3357C58.8513 31.9055 58.0004 33.0758 56.7827 33.9168C55.5788 34.7438 54.1605 35.1573 52.5277 35.1573C51.1439 35.1573 49.8917 34.8419 48.7708 34.2112C47.6639 33.5664 46.7852 32.6764 46.1348 31.541C45.4983 30.4057 45.1801 29.1162 45.1801 27.6725Z" fill="white"/>
<path d="M61.0704 29.1652C61.0704 27.9878 61.2987 26.9436 61.7554 26.0325C62.2258 25.1215 62.8554 24.4206 63.6441 23.9301C64.4467 23.4395 65.3392 23.1942 66.3217 23.1942C67.1796 23.1942 67.9268 23.3694 68.5633 23.7198C69.2137 24.0702 69.7326 24.5117 70.12 25.0444V23.3834H73.0466V35.0312H70.12V33.3281C69.7464 33.8748 69.2275 34.3303 68.5633 34.6948C67.913 35.0452 67.1588 35.2204 66.3009 35.2204C65.3323 35.2204 64.4467 34.9681 63.6441 34.4635C62.8554 33.9589 62.2258 33.2511 61.7554 32.34C61.2987 31.4149 61.0704 30.3566 61.0704 29.1652ZM70.12 29.2073C70.12 28.4924 69.9817 27.8827 69.7049 27.3781C69.4282 26.8595 69.0545 26.467 68.5841 26.2007C68.1136 25.9204 67.6085 25.7802 67.0689 25.7802C66.5292 25.7802 66.0311 25.9134 65.5745 26.1797C65.1178 26.446 64.7442 26.8385 64.4536 27.3571C64.1769 27.8617 64.0385 28.4644 64.0385 29.1652C64.0385 29.8661 64.1769 30.4828 64.4536 31.0154C64.7442 31.534 65.1178 31.9335 65.5745 32.2138C66.0449 32.4942 66.5431 32.6343 67.0689 32.6343C67.6085 32.6343 68.1136 32.5012 68.5841 32.2349C69.0545 31.9545 69.4282 31.5621 69.7049 31.0575C69.9817 30.5389 70.12 29.9221 70.12 29.2073Z" fill="white"/>
<path d="M82.2568 23.2152C83.6267 23.2152 84.7337 23.6567 85.5777 24.5398C86.4218 25.4088 86.8439 26.6282 86.8439 28.1981V35.0312H83.938V28.5976C83.938 27.6725 83.7097 26.9646 83.2531 26.4741C82.7964 25.9695 82.1738 25.7172 81.385 25.7172C80.5825 25.7172 79.9459 25.9695 79.4755 26.4741C79.0188 26.9646 78.7905 27.6725 78.7905 28.5976V35.0312H75.8847V23.3834H78.7905V24.8341C79.178 24.3295 79.6692 23.9371 80.2642 23.6567C80.873 23.3624 81.5372 23.2152 82.2568 23.2152Z" fill="white"/>
<path d="M88.8599 29.1652C88.8599 27.9878 89.0883 26.9436 89.5449 26.0325C90.0154 25.1215 90.6519 24.4206 91.4544 23.9301C92.257 23.4395 93.1495 23.1942 94.132 23.1942C94.8792 23.1942 95.5918 23.3624 96.2698 23.6988C96.9479 24.0212 97.4875 24.4557 97.8888 25.0023V19.4728H100.836V35.0312H97.8888V33.3071C97.529 33.8818 97.024 34.3443 96.3736 34.6948C95.7233 35.0452 94.9691 35.2204 94.1112 35.2204C93.1426 35.2204 92.257 34.9681 91.4544 34.4635C90.6519 33.9589 90.0154 33.2511 89.5449 32.34C89.0883 31.4149 88.8599 30.3566 88.8599 29.1652ZM97.9096 29.2073C97.9096 28.4924 97.7712 27.8827 97.4944 27.3781C97.2177 26.8595 96.8441 26.467 96.3736 26.2007C95.9032 25.9204 95.3981 25.7802 94.8584 25.7802C94.3188 25.7802 93.8206 25.9134 93.364 26.1797C92.9074 26.446 92.5338 26.8385 92.2432 27.3571C91.9664 27.8617 91.8281 28.4644 91.8281 29.1652C91.8281 29.8661 91.9664 30.4828 92.2432 31.0154C92.5338 31.534 92.9074 31.9335 93.364 32.2138C93.8345 32.4942 94.3326 32.6343 94.8584 32.6343C95.3981 32.6343 95.9032 32.5012 96.3736 32.2349C96.8441 31.9545 97.2177 31.5621 97.4944 31.0575C97.7712 30.5389 97.9096 29.9221 97.9096 29.2073Z" fill="white"/>
<path d="M106.58 19.4728V35.0312H103.674V19.4728H106.58Z" fill="white"/>
<path d="M120.14 28.955C120.14 29.3755 120.113 29.7539 120.057 30.0903H111.651C111.72 30.9313 112.011 31.5901 112.523 32.0667C113.035 32.5432 113.665 32.7815 114.412 32.7815C115.491 32.7815 116.259 32.3119 116.716 31.3728H119.85C119.518 32.4942 118.881 33.4193 117.94 34.1481C116.999 34.863 115.844 35.2204 114.474 35.2204C113.367 35.2204 112.371 34.9751 111.485 34.4845C110.613 33.9799 109.928 33.2721 109.43 32.361C108.946 31.4499 108.704 30.3987 108.704 29.2073C108.704 28.0019 108.946 26.9436 109.43 26.0325C109.915 25.1215 110.593 24.4206 111.464 23.9301C112.336 23.4395 113.339 23.1942 114.474 23.1942C115.567 23.1942 116.543 23.4325 117.401 23.909C118.272 24.3856 118.943 25.0654 119.414 25.9484C119.898 26.8175 120.14 27.8196 120.14 28.955ZM117.131 28.114C117.117 27.3571 116.847 26.7544 116.321 26.3059C115.795 25.8433 115.152 25.612 114.391 25.612C113.671 25.612 113.063 25.8363 112.564 26.2848C112.08 26.7193 111.783 27.3291 111.672 28.114H117.131Z" fill="white"/>
<path d="M121.514 29.1652C121.514 27.9878 121.742 26.9436 122.199 26.0325C122.67 25.1215 123.299 24.4206 124.088 23.9301C124.89 23.4395 125.783 23.1942 126.765 23.1942C127.623 23.1942 128.371 23.3694 129.007 23.7198C129.657 24.0702 130.176 24.5117 130.564 25.0444V23.3834H133.49V35.0312H130.564V33.3281C130.19 33.8748 129.671 34.3303 129.007 34.6948C128.357 35.0452 127.603 35.2204 126.745 35.2204C125.776 35.2204 124.89 34.9681 124.088 34.4635C123.299 33.9589 122.67 33.2511 122.199 32.34C121.742 31.4149 121.514 30.3566 121.514 29.1652ZM130.564 29.2073C130.564 28.4924 130.425 27.8827 130.149 27.3781C129.872 26.8595 129.498 26.467 129.028 26.2007C128.557 25.9204 128.052 25.7802 127.513 25.7802C126.973 25.7802 126.475 25.9134 126.018 26.1797C125.562 26.446 125.188 26.8385 124.897 27.3571C124.621 27.8617 124.482 28.4644 124.482 29.1652C124.482 29.8661 124.621 30.4828 124.897 31.0154C125.188 31.534 125.562 31.9335 126.018 32.2138C126.489 32.4942 126.987 32.6343 127.513 32.6343C128.052 32.6343 128.557 32.5012 129.028 32.2349C129.498 31.9545 129.872 31.5621 130.149 31.0575C130.425 30.5389 130.564 29.9221 130.564 29.2073Z" fill="white"/>
<path d="M141.6 25.8013H139.587V35.0312H136.64V25.8013H135.332V23.3834H136.64V22.7947C136.64 21.365 137.041 20.3138 137.844 19.641C138.646 18.9682 139.857 18.6528 141.476 18.6949V21.1758C140.77 21.1618 140.279 21.2809 140.002 21.5332C139.726 21.7855 139.587 22.2411 139.587 22.8998V23.3834H141.6V25.8013Z" fill="white"/>
<g clip-path="url(#clip0_105_2644)">
<mask id="mask0_105_2644" style="mask-type:alpha" maskUnits="userSpaceOnUse" x="0" y="9" width="39" height="39">
<circle cx="19.0086" cy="28.6087" r="19.0086" fill="#F578A5"/>
</mask>
<g mask="url(#mask0_105_2644)">
<circle cx="19.0086" cy="28.6087" r="19.0086" fill="white"/>
<path d="M10.2649 47.3417V47.7575H10.6807H28.3118H28.7276V47.3417V39.9437C28.7276 39.2642 28.1891 38.7069 27.51 38.6838L11.5684 38.1403C10.8558 38.116 10.2649 38.6872 10.2649 39.4002V47.3417Z" fill="#272727" stroke="#272727" stroke-width="0.831626"/>
<g clip-path="url(#clip1_105_2644)">
<path d="M13.9273 22.9477C17.8011 17.5615 16.1348 13.1773 16.1395 13.1721C16.0574 12.9526 16.1688 12.7081 16.3884 12.6259C16.4991 12.5845 16.6221 12.5912 16.7277 12.6443C23.7193 15.9898 26.7279 20.3086 27.3041 24.2133C27.5331 25.7303 27.39 27.2803 26.8869 28.7297C26.4259 30.0671 25.6581 31.278 24.6449 32.2653C22.696 34.1474 19.9724 35.015 17.2844 34.1354C16.5968 33.9111 15.9479 33.582 15.3608 33.1597C14.1829 32.3143 13.2894 31.1312 12.7986 29.7669C12.2778 28.3078 12.2612 26.7163 12.7516 25.2467C13.0224 24.4242 13.419 23.6487 13.9273 22.9477Z" fill="#272727"/>
<path d="M16.2246 13.3111C16.0543 13.15 16.0468 12.8814 16.2079 12.7111C16.3689 12.5409 16.6376 12.5334 16.8078 12.6944C16.8204 12.7063 16.8321 12.7189 16.8431 12.7322C16.8587 12.7462 20.2343 16.2846 20.7166 23.1234L20.7216 23.1875C20.8257 24.7859 20.7743 26.3907 20.5681 27.9791L22.8763 26.2103C23.0697 26.0777 23.3338 26.127 23.4664 26.3203C23.5863 26.4953 23.5587 26.732 23.4015 26.8746L20.385 29.1793C19.7097 33.1495 17.3291 38.7662 20.4805 42.2816C20.6323 42.4603 20.6106 42.7281 20.4319 42.8799C20.2619 43.0244 20.0091 43.0125 19.8533 42.8528C16.0742 38.6405 18.8241 33.4222 19.5766 28.9096L19.5865 28.8463C19.8925 27.0505 19.9974 25.2263 19.8992 23.4073L17.1861 21.4194C16.9926 21.2871 16.943 21.023 17.0752 20.8295C17.2075 20.636 17.4716 20.5864 17.6652 20.7186C17.6732 20.7241 17.681 20.7299 17.6886 20.7359L19.7908 22.2836C19.135 16.3553 16.2369 13.3253 16.2246 13.3111Z" fill="white"/>
</g>
</g>
</g>
<defs>
<clipPath id="clip0_105_2644">
<rect width="38.0172" height="38.0172" fill="white" transform="translate(0 9.6001)"/>
</clipPath>
<clipPath id="clip1_105_2644">
<rect width="23.3299" height="23.3299" fill="white" transform="translate(2.24084 28.2229) rotate(-48)"/>
</clipPath>
</defs>
</svg>
